<svg xmlns="http://www.w3.org/2000/svg" width="32.483" height="32.483" viewBox="0 0 32.483 32.483">
  <g id="Bag" transform="translate(1.5 1.5)">
    <path id="Path_152" d="M18.427,12.9a1.741,1.741,0,0,0,1.843,1.843A1.741,1.741,0,0,0,22.112,12.9a1.741,1.741,0,0,0-1.843-1.843A1.741,1.741,0,0,0,18.427,12.9Zm-11.056,0a1.741,1.741,0,0,0,1.843,1.843A1.741,1.741,0,0,0,11.056,12.9a1.741,1.741,0,0,0-1.843-1.843A1.741,1.741,0,0,0,7.371,12.9ZM27.64,9.029l1.843,18.427a2.092,2.092,0,0,1-.553,1.474,1.435,1.435,0,0,1-1.29.553H1.843a1.435,1.435,0,0,1-1.29-.553A2.092,2.092,0,0,1,0,27.456L1.843,9.029A1.959,1.959,0,0,1,3.685,7.371H7.371a7.371,7.371,0,0,1,14.741,0H25.8A1.959,1.959,0,0,1,27.64,9.029ZM18.427,7.371H11.056a3.685,3.685,0,0,1,7.371,0Z" fill="none" stroke="#000" stroke-width="3" fill-rule="evenodd"/>
  </g>
</svg>
